<?xml version="1.0" encoding="UTF-8" standalone="no"?><!DOCTYPE svg PUBLIC "-//W3C//DTD SVG 1.1//EN" "http://www.w3.org/Graphics/SVG/1.1/DTD/svg11.dtd"><svg width="100%" height="100%" viewBox="0 0 4240 321" version="1.1" xmlns="http://www.w3.org/2000/svg" xmlns:xlink="http://www.w3.org/1999/xlink" xml:space="preserve" xmlns:serif="http://www.serif.com/" style="fill-rule:evenodd;clip-rule:evenodd;stroke-linejoin:round;stroke-miterlimit:2;"><g transform="matrix(3.11212,0,0,3.11212,1350.94,-2400.46)"><g transform="matrix(144.596,0,0,144.596,-450.573,873.411)"><path d="M0.78,-0.7l-0.301,0.519l-0.304,-0.519l-0.061,0l0,0.7l0.071,0l0,-0.557l0.275,0.468l0.035,0l0.275,-0.471l0,0.56l0.071,0l0,-0.7l-0.061,0Z" style="fill:#2c2a35;fill-rule:nonzero;"/></g><g transform="matrix(144.596,0,0,144.596,-312.484,873.411)"><path d="M0.42,0.006c0.21,0 0.367,-0.151 0.367,-0.356c0,-0.205 -0.157,-0.356 -0.367,-0.356c-0.212,0 -0.368,0.152 -0.368,0.356c0,0.204 0.156,0.356 0.368,0.356Zm0,-0.066c-0.169,0 -0.295,-0.123 -0.295,-0.29c0,-0.167 0.126,-0.29 0.295,-0.29c0.168,0 0.293,0.123 0.293,0.29c0,0.167 -0.125,0.29 -0.293,0.29Z" style="fill:#2c2a35;fill-rule:nonzero;"/></g><g transform="matrix(144.596,0,0,144.596,-191.168,873.411)"><path d="M0.626,-0.7l0,0.568l-0.451,-0.568l-0.061,0l0,0.7l0.074,0l0,-0.568l0.45,0.568l0.061,0l0,-0.7l-0.073,0Z" style="fill:#2c2a35;fill-rule:nonzero;"/></g><g transform="matrix(144.596,0,0,144.596,-73.6118,873.411)"><path d="M0.396,0.006c0.179,0 0.287,-0.104 0.287,-0.305l0,-0.401l-0.072,0l0,0.398c0,0.166 -0.078,0.242 -0.215,0.242c-0.136,0 -0.214,-0.076 -0.214,-0.242l0,-0.398l-0.074,0l0,0.401c0,0.201 0.109,0.305 0.288,0.305Z" style="fill:#2c2a35;fill-rule:nonzero;"/></g><g transform="matrix(144.596,0,0,144.596,40.9081,873.411)"><path d="M0.78,-0.7l-0.301,0.519l-0.304,-0.519l-0.061,0l0,0.7l0.071,0l0,-0.557l0.275,0.468l0.035,0l0.275,-0.471l0,0.56l0.071,0l0,-0.7l-0.061,0Z" style="fill:#2c2a35;fill-rule:nonzero;"/></g><g transform="matrix(144.596,0,0,144.596,178.997,873.411)"><path d="M0.188,-0.064l0,-0.26l0.362,0l0,-0.063l-0.362,0l0,-0.249l0.406,0l0,-0.064l-0.48,0l0,0.7l0.495,0l0,-0.064l-0.421,0Z" style="fill:#2c2a35;fill-rule:nonzero;"/></g><g transform="matrix(144.596,0,0,144.596,275.732,873.411)"><path d="M0.626,-0.7l0,0.568l-0.451,-0.568l-0.061,0l0,0.7l0.074,0l0,-0.568l0.45,0.568l0.061,0l0,-0.7l-0.073,0Z" style="fill:#2c2a35;fill-rule:nonzero;"/></g><g transform="matrix(144.596,0,0,144.596,393.288,873.411)"><path d="M0.25,0l0.074,0l0,-0.636l0.246,0l0,-0.064l-0.566,0l0,0.064l0.246,0l0,0.636Z" style="fill:#2c2a35;fill-rule:nonzero;"/></g><g transform="matrix(144.596,0,0,144.596,471.225,873.411)"><path d="M0.637,0l0.078,0l-0.32,-0.7l-0.073,0l-0.32,0.7l0.077,0l0.084,-0.187l0.39,0l0.084,0.187Zm-0.447,-0.247l0.168,-0.376l0.168,0.376l-0.336,0Z" style="fill:#2c2a35;fill-rule:nonzero;"/></g><g transform="matrix(144.596,0,0,144.596,574.901,873.411)"><path d="M0.114,0l0.466,0l0,-0.064l-0.392,0l0,-0.636l-0.074,0l0,0.7Z" style="fill:#2c2a35;fill-rule:nonzero;"/></g><g transform="matrix(144.596,0,0,144.596,697.952,873.411)"><path d="M0.897,0l-0.002,-0.7l-0.194,0l-0.222,0.373l-0.228,-0.373l-0.194,0l0,0.7l0.215,0l0,-0.308l0.152,0.245l0.104,0l0.152,-0.256l0.002,0.319l0.215,0Z" style="fill:#2c2a35;fill-rule:nonzero;"/></g><g transform="matrix(144.596,0,0,144.596,835.896,873.411)"><path d="M0.289,-0.178l0,-0.092l0.296,0l0,-0.17l-0.296,0l0,-0.082l0.337,0l0,-0.178l-0.569,0l0,0.7l0.582,0l0,-0.178l-0.35,0Z" style="fill:#2c2a35;fill-rule:nonzero;"/></g></g></svg>